<svg width="41" height="40" viewBox="0 0 41 40" fill="none" xmlns="http://www.w3.org/2000/svg">
<path d="M14.1666 35V11.6667C14.1666 10.1167 14.1666 9.34174 14.337 8.7059C14.7993 6.98044 16.1471 5.63271 17.8725 5.17037C18.5084 5 19.2834 5 20.8333 5C22.3833 5 23.1582 5 23.7941 5.17037C25.5195 5.63271 26.8673 6.98044 27.3296 8.7059C27.5 9.34174 27.5 10.1167 27.5 11.6667V35M9.49998 35H32.1666C34.0335 35 34.9669 35 35.6799 34.6367C36.3072 34.3171 36.8171 33.8072 37.1367 33.18C37.5 32.4669 37.5 31.5335 37.5 29.6667V17C37.5 15.1332 37.5 14.1997 37.1367 13.4867C36.8171 12.8595 36.3072 12.3496 35.6799 12.03C34.9669 11.6667 34.0335 11.6667 32.1666 11.6667H9.49997C7.63313 11.6667 6.69971 11.6667 5.98667 12.03C5.35947 12.3496 4.84953 12.8595 4.52995 13.4867C4.16664 14.1997 4.16664 15.1332 4.16664 17V29.6667C4.16664 31.5335 4.16664 32.4669 4.52995 33.18C4.84953 33.8072 5.35947 34.3171 5.98667 34.6367C6.69971 35 7.63313 35 9.49998 35Z" stroke="#3B82F6" stroke-width="3.33333" stroke-linecap="round" stroke-linejoin="round"/>
</svg>
