<svg width="38" height="37" viewBox="0 0 38 37" fill="none" xmlns="http://www.w3.org/2000/svg">
<path d="M20.3696 22.7411L28.5007 34.6665M16.6317 22.7411L8.50068 34.6665M21.834 20C21.834 21.8409 20.3416 23.3333 18.5007 23.3333C16.6597 23.3333 15.1673 21.8409 15.1673 20C15.1673 18.159 16.6597 16.6666 18.5007 16.6666C20.3416 16.6666 21.834 18.159 21.834 20ZM27.0815 5.55377L7.44103 10.8164C6.99023 10.9372 6.76482 10.9976 6.61614 11.1315C6.48536 11.2492 6.39522 11.4054 6.35863 11.5775C6.31703 11.7732 6.37743 11.9986 6.49822 12.4494L7.96487 17.923C8.08566 18.3738 8.14606 18.5992 8.27993 18.7479C8.39768 18.8787 8.55382 18.9688 8.72595 19.0054C8.92165 19.047 9.14705 18.9866 9.59786 18.8658L29.2384 13.6031L27.0815 5.55377ZM34.8213 13.8327C33.0181 14.3158 32.1165 14.5574 31.3337 14.391C30.6452 14.2447 30.0206 13.8841 29.5496 13.361C29.0141 12.7663 28.7725 11.8647 28.2893 10.0614L28.0305 9.0955C27.5474 7.29226 27.3058 6.39065 27.4722 5.60787C27.6185 4.91933 27.9791 4.29479 28.5022 3.82376C29.0969 3.28828 29.9985 3.0467 31.8018 2.56352C32.2526 2.44273 32.478 2.38233 32.6737 2.42393C32.8458 2.46052 33.0019 2.55066 33.1197 2.68144C33.2536 2.83012 33.314 3.05552 33.4348 3.50633L35.7641 12.1997C35.8849 12.6505 35.9453 12.8759 35.9037 13.0716C35.8671 13.2437 35.777 13.3998 35.6462 13.5176C35.4975 13.6515 35.2721 13.7119 34.8213 13.8327ZM4.33686 18.55L6.59069 17.9461C7.0415 17.8253 7.2669 17.7649 7.41558 17.631C7.54636 17.5133 7.63651 17.3572 7.67309 17.185C7.71469 16.9893 7.65429 16.7639 7.5335 16.3131L6.92959 14.0593C6.8088 13.6085 6.7484 13.3831 6.61453 13.2344C6.49677 13.1036 6.34064 13.0135 6.1685 12.9769C5.97281 12.9353 5.7474 12.9957 5.2966 13.1165L3.04277 13.7204C2.59196 13.8412 2.36656 13.9016 2.21788 14.0355C2.0871 14.1532 1.99695 14.3093 1.96037 14.4815C1.91877 14.6772 1.97917 14.9026 2.09996 15.3534L2.70387 17.6072C2.82466 18.058 2.88506 18.2834 3.01893 18.4321C3.13669 18.5629 3.29282 18.653 3.46496 18.6896C3.66065 18.7312 3.88606 18.6708 4.33686 18.55Z" stroke="#3B82F6" stroke-width="3.33333" stroke-linecap="round" stroke-linejoin="round"/>
</svg>
