<svg width="37" height="28" viewBox="0 0 37 28" fill="none" xmlns="http://www.w3.org/2000/svg">
<path d="M3.666 25.642C1.606 23.454 0.5 21 0.5 17.022C0.5 10.022 5.414 3.748 12.56 0.645996L14.346 3.402C7.676 7.01 6.372 11.692 5.852 14.644C6.926 14.088 8.332 13.894 9.71 14.022C13.318 14.356 16.162 17.318 16.162 21C16.162 22.8565 15.4245 24.637 14.1117 25.9497C12.799 27.2625 11.0185 28 9.162 28C8.13532 27.991 7.12067 27.7779 6.17712 27.3731C5.23358 26.9683 4.37997 26.3798 3.666 25.642ZM23.666 25.642C21.606 23.454 20.5 21 20.5 17.022C20.5 10.022 25.414 3.748 32.56 0.645996L34.346 3.402C27.676 7.01 26.372 11.692 25.852 14.644C26.926 14.088 28.332 13.894 29.71 14.022C33.318 14.356 36.162 17.318 36.162 21C36.162 22.8565 35.4245 24.637 34.1117 25.9497C32.799 27.2625 31.0185 28 29.162 28C28.1353 27.991 27.1207 27.7779 26.1771 27.3731C25.2336 26.9683 24.38 26.3798 23.666 25.642Z" fill="#3B82F6"/>
</svg>
